
      <svg data-logo="logo" xmlns="http://www.w3.org/2000/svg" viewBox="0 0 251.61000061035156 35">
        <g id="logogram" transform="
    translate(0, 0.5)
    rotate(0 24 17)
    
  "><path d="M15.4992 0H36.5808L21.0816 22.9729H0L15.4992 0Z" fill="#007AFF"/><path d="M16.4224 25.102L10.4192 34H32.5008L48 11.0271H31.7024L22.2064 25.102H16.4224Z" fill="#312ECB"/></g>
        <g id="logotype" transform="translate(54, 4.755000000000001)"><path fill="#111111" d="M25.04 25L8.17 25L8.17 0.01L25.04 0.01Q27.84 0.01 30.26 0.83Q32.67 1.65 34.49 3.26Q36.31 4.87 37.34 7.20Q38.38 9.53 38.38 12.50L38.38 12.50Q38.38 14.92 37.71 16.88Q37.05 18.84 35.84 20.34Q34.63 21.85 32.95 22.88Q31.27 23.91 29.28 24.46Q27.28 25 25.04 25L25.04 25ZM14.86 5.08L14.86 19.93L24.13 19.93Q25.22 19.93 26.28 19.64Q27.35 19.36 28.28 18.80Q29.21 18.24 29.92 17.37Q30.64 16.49 31.04 15.29Q31.45 14.08 31.45 12.50L31.45 12.50Q31.45 10.54 30.83 9.13Q30.22 7.71 29.15 6.82Q28.09 5.92 26.79 5.50Q25.50 5.08 24.13 5.08L24.13 5.08L14.86 5.08ZM52.41 25.49L52.41 25.49Q48.56 25.49 45.83 24.30Q43.10 23.11 41.66 20.98Q40.23 18.84 40.23 16.00L40.23 16.00Q40.23 14.29 40.76 12.84Q41.28 11.38 42.30 10.21Q43.31 9.04 44.78 8.22Q46.25 7.39 48.16 6.96Q50.06 6.52 52.41 6.52L52.41 6.52Q56.30 6.52 59.01 7.71Q61.72 8.90 63.16 11.03Q64.59 13.17 64.59 16.00L64.59 16.00Q64.59 17.68 64.06 19.16Q63.54 20.63 62.54 21.80Q61.55 22.97 60.06 23.79Q58.57 24.61 56.65 25.05Q54.72 25.49 52.41 25.49ZM52.41 20.98L52.41 20.98Q53.56 20.98 54.48 20.73Q55.39 20.48 56.05 20.01Q56.72 19.54 57.15 18.91Q57.59 18.28 57.80 17.54Q58.01 16.81 58.01 16.00L58.01 16.00Q58.01 14.64 57.42 13.52Q56.82 12.40 55.58 11.72Q54.34 11.03 52.41 11.03L52.41 11.03Q51.26 11.03 50.34 11.28Q49.44 11.52 48.77 12.00Q48.11 12.47 47.65 13.08Q47.20 13.69 46.98 14.45Q46.77 15.20 46.77 16.00L46.77 16.00Q46.77 17.34 47.39 18.47Q48 19.61 49.24 20.29Q50.48 20.98 52.41 20.98ZM78.69 25.49L78.69 25.49Q74.81 25.49 72.10 24.30Q69.38 23.11 67.95 20.96Q66.52 18.80 66.52 16.00L66.52 16.00Q66.52 14.29 67.02 12.84Q67.53 11.38 68.56 10.21Q69.59 9.04 71.06 8.22Q72.53 7.39 74.46 6.96Q76.38 6.52 78.69 6.52L78.69 6.52Q82.16 6.52 84.63 7.32Q87.09 8.13 88.51 9.65Q89.93 11.17 90.28 13.38L90.28 13.38L83.63 13.38Q83.31 12.64 82.61 12.12Q81.91 11.59 80.94 11.31Q79.95 11.03 78.66 11.03L78.66 11.03Q77.54 11.03 76.63 11.26Q75.72 11.49 75.05 11.94Q74.39 12.40 73.95 13.01Q73.52 13.62 73.29 14.38Q73.06 15.13 73.06 16.00L73.06 16.00Q73.06 17.41 73.67 18.54Q74.28 19.68 75.53 20.33Q76.77 20.98 78.66 20.98L78.66 20.98Q80.58 20.98 81.81 20.29Q83.03 19.61 83.63 18.66L83.63 18.66L90.28 18.66Q89.97 20.73 88.53 22.25Q87.09 23.77 84.63 24.63Q82.16 25.49 78.69 25.49ZM109.67 25L101.79 25L89.51 0.01L96.96 0.01L107.08 21.57L105.12 21.57L115.27 0.01L121.95 0.01L109.67 25ZM127.91 25.49L127.91 25.49Q124.41 25.49 122.43 24.05Q120.45 22.62 120.45 20.10L120.45 20.10Q120.45 18.49 121.29 17.34Q122.13 16.18 123.81 15.44Q125.49 14.71 128.04 14.50L128.04 14.50L134.69 13.80Q135.50 13.73 135.90 13.40Q136.31 13.06 136.31 12.54L136.31 12.54L136.31 12.50Q136.31 11.87 135.78 11.44Q135.25 11.00 134.33 10.77Q133.40 10.54 132.10 10.54L132.10 10.54Q130.14 10.54 129.03 10.98Q127.91 11.42 127.66 12.29L127.66 12.29L121.29 12.29Q121.64 10.40 123.00 9.13Q124.37 7.85 126.70 7.18Q129.03 6.52 132.25 6.52L132.25 6.52Q135.78 6.52 138.09 7.27Q140.40 8.02 141.56 9.56Q142.71 11.10 142.71 13.45L142.71 13.45L142.71 25L136.62 25L136.62 19.75L137.28 20.55Q136.48 22.20 135.19 23.29Q133.89 24.37 132.09 24.93Q130.28 25.49 127.91 25.49ZM130.22 21.29L130.22 21.29Q131.51 21.29 132.61 20.96Q133.72 20.63 134.56 20.05Q135.40 19.47 135.85 18.70Q136.31 17.93 136.31 17.05L136.31 17.05L136.31 14.71L137.32 16.18Q136.79 16.49 135.92 16.74Q135.04 16.98 133.64 17.16L133.64 17.16L129.09 17.72Q128.04 17.86 127.54 18.26Q127.03 18.66 127.03 19.40L127.03 19.40Q127.03 20.27 127.85 20.78Q128.68 21.29 130.22 21.29ZM153.77 25.49L153.77 25.49Q151.74 25.49 150.22 24.91Q148.69 24.34 147.66 23.23Q146.63 22.13 146.10 20.54Q145.58 18.95 145.58 16.91L145.58 16.91L145.58 7.01L151.98 7.01L151.98 15.62Q151.98 17.20 152.47 18.35Q152.96 19.50 153.98 20.12Q154.99 20.73 156.53 20.73L156.53 20.73Q158.21 20.73 159.39 20.06Q160.56 19.40 161.17 18.24Q161.78 17.09 161.78 15.51L161.78 15.51L161.78 7.01L168.19 7.01L168.19 25L161.78 25L161.78 19.96L162.38 20.98Q161.33 23.07 159.12 24.28Q156.92 25.49 153.77 25.49ZM177.88 25L171.48 25L171.48 0.01L177.88 0.01L177.88 25ZM196.78 25L190.38 25Q187.51 25 185.83 23.46Q184.15 21.92 184.15 19.16L184.15 19.16L184.15 2.14L190.55 2.14L190.55 18.11Q190.55 19.40 191.24 20.10Q191.92 20.80 193.25 20.80L193.25 20.80L196.78 20.80L196.78 25ZM184.71 11.14L179.98 11.14L179.98 7.01L184.71 7.01L184.71 11.14ZM196.78 11.14L189.99 11.14L189.99 7.01L196.78 7.01L196.78 11.14Z"/></g>
        
      </svg>
    